<svg width="38" height="38" viewBox="0 0 38 38" fill="none" xmlns="http://www.w3.org/2000/svg">
<g id="icono-vision">
<path id="Vector" d="M19 38C29.4934 38 38 29.4934 38 19C38 8.50659 29.4934 0 19 0C8.50659 0 0 8.50659 0 19C0 29.4934 8.50659 38 19 38Z" fill="#BBD6EB"/>
<path id="Vector_2" d="M19.38 17C18.07 17 17 18.06 17 19.38C17 20.7 18.06 21.76 19.38 21.76C20.7 21.76 21.76 20.7 21.76 19.38C21.76 18.06 20.7 17 19.38 17Z" fill="white"/>
<path id="Vector_3" d="M29.595 18.47C27.385 15.17 23.655 13 19.425 13C15.195 13 11.455 15.17 9.255 18.47C8.915 18.98 8.915 19.63 9.255 20.14C11.465 23.44 15.195 25.61 19.425 25.61C23.655 25.61 27.395 23.44 29.595 20.14C29.935 19.63 29.935 18.98 29.595 18.47ZM19.425 23.68C17.015 23.68 15.045 21.72 15.045 19.3C15.045 16.88 17.005 14.92 19.425 14.92C21.845 14.92 23.805 16.88 23.805 19.3C23.805 21.72 21.845 23.68 19.425 23.68Z" fill="white"/>
</g>
</svg>
