<svg width="27" height="27" viewBox="0 0 27 27" fill="none" xmlns="http://www.w3.org/2000/svg">
<g id="icono-tel">
<circle id="Ellipse 34" cx="13.5" cy="13.5" r="13.5" fill="#BBD6EB"/>
<path id="Vector" fill-rule="evenodd" clip-rule="evenodd" d="M20.2198 15.2439C19.5831 14.8625 18.7519 14.4368 18.0091 14.7473C17.4344 14.9867 17.063 15.8825 16.6916 16.3437C16.4971 16.5831 16.276 16.6186 15.9753 16.4945C13.8178 15.6342 12.1642 14.1885 10.9704 12.193C10.7671 11.8825 10.8024 11.6431 11.05 11.3504C11.4126 10.9247 11.8635 10.4458 11.9608 9.86926C12.0581 9.29277 11.7928 8.62759 11.5541 8.12206C11.2534 7.47462 10.9174 6.54336 10.263 6.17086C9.67059 5.83384 8.8836 6.02896 8.35304 6.46354C7.43342 7.21741 6.99129 8.38813 7.00013 9.55885C7.00013 9.887 7.04434 10.224 7.12393 10.5433C7.30962 11.3149 7.66332 12.0333 8.06124 12.7162C8.36189 13.2306 8.68906 13.7273 9.04276 14.2151C10.2011 15.7849 11.6336 17.1508 13.296 18.1796C14.1272 18.694 15.0203 19.1374 15.9488 19.4479C16.9834 19.7938 17.9119 20.1485 19.0349 19.9357C20.2109 19.7139 21.3693 18.9867 21.838 17.8514C21.9795 17.5144 22.0413 17.1419 21.9706 16.7871C21.8114 16.051 20.8211 15.6164 20.2286 15.2617L20.2198 15.2439Z" fill="white"/>
</g>
</svg>
