<svg width="27" height="27" viewBox="0 0 27 27" fill="none" xmlns="http://www.w3.org/2000/svg">
<g id="icono-mail">
<circle id="Ellipse 35" cx="13.5" cy="13.5" r="13.5" fill="#BBD6EB"/>
<path id="Vector" d="M7.97167 8.13955L12.5309 13.2626C12.7906 13.5527 13.1653 13.7216 13.5548 13.7216C13.9443 13.7216 14.319 13.5564 14.5787 13.2626L19.0637 8.22769C19.1008 8.18729 19.1454 8.15424 19.1899 8.12853C19.0007 8.04774 18.7892 8 18.5704 8H8.54668C8.33523 8 8.1349 8.0404 7.95312 8.11752C7.96054 8.12486 7.96796 8.13221 7.97538 8.13955H7.97167Z" fill="white"/>
<path id="Vector_2" d="M19.8839 9.71973C19.8653 9.77114 19.8356 9.82255 19.7948 9.86662L15.3135 14.9015C14.8683 15.401 14.2303 15.6874 13.5588 15.6874C12.8873 15.6874 12.2493 15.401 11.8041 14.9015L7.24484 9.77481C7.24484 9.77481 7.23 9.75278 7.22258 9.74176C7.08161 9.97312 7 10.2412 7 10.5313V17.4649C7 18.3132 7.69372 18.9999 8.55066 18.9999H18.578C19.435 18.9999 20.1287 18.3132 20.1287 17.4649V10.535C20.1287 10.2339 20.0397 9.95843 19.8913 9.71973H19.8839Z" fill="white"/>
</g>
</svg>
