<svg width="38" height="38" viewBox="0 0 38 38" fill="none" xmlns="http://www.w3.org/2000/svg">
<g id="icono-mision" clip-path="url(#clip0_184_272)">
<path id="Vector" d="M19 38C29.4934 38 38 29.4934 38 19C38 8.50659 29.4934 0 19 0C8.50659 0 0 8.50659 0 19C0 29.4934 8.50659 38 19 38Z" fill="#BBD6EB"/>
<path id="Vector_2" d="M27.8101 15.17C27.8101 15.17 27.7501 15.17 27.7201 15.17C27.0701 15.27 26.4801 15.33 25.9201 15.33C23.8701 15.33 22.2501 14.65 20.1301 13.4C18.4601 12.41 16.5401 12.2 15.1801 12.2C14.7701 12.2 14.4101 12.22 14.1201 12.24V12.21C14.1201 11.66 13.6701 11.21 13.1201 11.21C12.5701 11.21 12.1201 11.66 12.1201 12.21V27.21C12.1201 27.76 12.5701 28.21 13.1201 28.21C13.6701 28.21 14.1201 27.76 14.1201 27.21V20.75C15.1901 20.24 16.2301 20.07 17.2201 20.07C18.9601 20.07 20.5601 20.57 21.8901 20.57C22.2401 20.57 22.5801 20.53 22.9001 20.45C26.1401 19.53 27.6601 17.25 28.2801 15.95C28.4601 15.58 28.1901 15.17 27.8001 15.17H27.8101Z" fill="white"/>
</g>
<defs>
<clipPath id="clip0_184_272">
<rect width="38" height="38" fill="white"/>
</clipPath>
</defs>
</svg>
